<svg width="200" height="199" viewBox="0 0 200 199" fill="none" xmlns="http://www.w3.org/2000/svg">
<g clip-path="url(#clip0_1_7)">
<path d="M84 20.097H77.6V26.4492H84V20.097Z" fill="#242D40"/>
<path d="M116 20.097H109.6V26.4492H116V20.097Z" fill="#242D40"/>
<path d="M128.8 20.097H122.4V26.4492H128.8V20.097Z" fill="#242D40"/>
<path d="M77.5999 26.4492H71.1999V32.8015H77.5999V26.4492Z" fill="#242D40"/>
<path d="M84 26.4492H77.6V32.8015H84V26.4492Z" fill="#242D40"/>
<path d="M96.7999 26.4492H90.3999V32.8015H96.7999V26.4492Z" fill="#242D40"/>
<path d="M103.2 26.4492H96.8V32.8015H103.2V26.4492Z" fill="#242D40"/>
<path d="M109.6 26.4492H103.2V32.8015H109.6V26.4492Z" fill="#242D40"/>
<path d="M116 26.4492H109.6V32.8015H116V26.4492Z" fill="#242D40"/>
<path d="M84 32.8015H77.6V39.1537H84V32.8015Z" fill="#242D40"/>
<path d="M90.4001 32.8015H84.0001V39.1537H90.4001V32.8015Z" fill="#242D40"/>
<path d="M96.7999 32.8015H90.3999V39.1537H96.7999V32.8015Z" fill="#242D40"/>
<path d="M77.5999 39.1537H71.1999V45.506H77.5999V39.1537Z" fill="#242D40"/>
<path d="M84 39.1537H77.6V45.506H84V39.1537Z" fill="#242D40"/>
<path d="M96.7999 39.1537H90.3999V45.506H96.7999V39.1537Z" fill="#242D40"/>
<path d="M109.6 39.1537H103.2V45.506H109.6V39.1537Z" fill="#242D40"/>
<path d="M122.4 39.1537H116V45.506H122.4V39.1537Z" fill="#242D40"/>
<path d="M128.8 39.1537H122.4V45.506H128.8V39.1537Z" fill="#242D40"/>
<path d="M90.4001 45.506H84.0001V51.8582H90.4001V45.506Z" fill="#242D40"/>
<path d="M103.2 45.506H96.8V51.8582H103.2V45.506Z" fill="#242D40"/>
<path d="M122.4 45.506H116V51.8582H122.4V45.506Z" fill="#242D40"/>
<path d="M128.8 45.506H122.4V51.8582H128.8V45.506Z" fill="#242D40"/>
<path d="M77.5999 51.8582H71.1999V58.2104H77.5999V51.8582Z" fill="#242D40"/>
<path d="M90.4001 51.8582H84.0001V58.2104H90.4001V51.8582Z" fill="#242D40"/>
<path d="M109.6 51.8582H103.2V58.2104H109.6V51.8582Z" fill="#242D40"/>
<path d="M116 51.8582H109.6V58.2104H116V51.8582Z" fill="#242D40"/>
<path d="M122.4 51.8582H116V58.2104H122.4V51.8582Z" fill="#242D40"/>
<path d="M77.5999 58.2104H71.1999V64.5627H77.5999V58.2104Z" fill="#242D40"/>
<path d="M90.4001 58.2104H84.0001V64.5627H90.4001V58.2104Z" fill="#242D40"/>
<path d="M103.2 58.2104H96.8V64.5627H103.2V58.2104Z" fill="#242D40"/>
<path d="M116 58.2104H109.6V64.5627H116V58.2104Z" fill="#242D40"/>
<path d="M128.8 58.2104H122.4V64.5627H128.8V58.2104Z" fill="#242D40"/>
<path d="M103.2 64.5627H96.8V70.915H103.2V64.5627Z" fill="#242D40"/>
<path d="M128.8 64.5627H122.4V70.915H128.8V64.5627Z" fill="#242D40"/>
<path d="M26.4 70.915H20V77.2672H26.4V70.915Z" fill="#242D40"/>
<path d="M32.8 70.915H26.4V77.2672H32.8V70.915Z" fill="#242D40"/>
<path d="M39.2 70.915H32.8V77.2672H39.2V70.915Z" fill="#242D40"/>
<path d="M45.6 70.915H39.2V77.2672H45.6V70.915Z" fill="#242D40"/>
<path d="M52 70.915H45.6V77.2672H52V70.915Z" fill="#242D40"/>
<path d="M64.8 70.915H58.4V77.2672H64.8V70.915Z" fill="#242D40"/>
<path d="M71.2 70.915H64.8V77.2672H71.2V70.915Z" fill="#242D40"/>
<path d="M77.5999 70.915H71.1999V77.2672H77.5999V70.915Z" fill="#242D40"/>
<path d="M84 70.915H77.6V77.2672H84V70.915Z" fill="#242D40"/>
<path d="M90.4001 70.915H84.0001V77.2672H90.4001V70.915Z" fill="#242D40"/>
<path d="M103.2 70.915H96.8V77.2672H103.2V70.915Z" fill="#242D40"/>
<path d="M109.6 70.915H103.2V77.2672H109.6V70.915Z" fill="#242D40"/>
<path d="M116 70.915H109.6V77.2672H116V70.915Z" fill="#242D40"/>
<path d="M122.4 70.915H116V77.2672H122.4V70.915Z" fill="#242D40"/>
<path d="M135.2 70.915H128.8V77.2672H135.2V70.915Z" fill="#242D40"/>
<path d="M148 70.915H141.6V77.2672H148V70.915Z" fill="#242D40"/>
<path d="M160.8 70.915H154.4V77.2672H160.8V70.915Z" fill="#242D40"/>
<path d="M173.6 70.915H167.2V77.2672H173.6V70.915Z" fill="#242D40"/>
<path d="M32.8 77.2672H26.4V83.6195H32.8V77.2672Z" fill="#242D40"/>
<path d="M39.2 77.2672H32.8V83.6195H39.2V77.2672Z" fill="#242D40"/>
<path d="M52 77.2672H45.6V83.6195H52V77.2672Z" fill="#242D40"/>
<path d="M84 77.2672H77.6V83.6195H84V77.2672Z" fill="#242D40"/>
<path d="M122.4 77.2672H116V83.6195H122.4V77.2672Z" fill="#242D40"/>
<path d="M128.8 77.2672H122.4V83.6195H128.8V77.2672Z" fill="#242D40"/>
<path d="M135.2 77.2672H128.8V83.6195H135.2V77.2672Z" fill="#242D40"/>
<path d="M148 77.2672H141.6V83.6195H148V77.2672Z" fill="#242D40"/>
<path d="M154.4 77.2672H148V83.6195H154.4V77.2672Z" fill="#242D40"/>
<path d="M180 77.2672H173.6V83.6195H180V77.2672Z" fill="#242D40"/>
<path d="M26.4 83.6194H20V89.9717H26.4V83.6194Z" fill="#242D40"/>
<path d="M32.8 83.6194H26.4V89.9717H32.8V83.6194Z" fill="#242D40"/>
<path d="M52 83.6194H45.6V89.9717H52V83.6194Z" fill="#242D40"/>
<path d="M58.4 83.6194H52V89.9717H58.4V83.6194Z" fill="#242D40"/>
<path d="M64.8 83.6194H58.4V89.9717H64.8V83.6194Z" fill="#242D40"/>
<path d="M77.5999 83.6194H71.1999V89.9717H77.5999V83.6194Z" fill="#242D40"/>
<path d="M84 83.6194H77.6V89.9717H84V83.6194Z" fill="#242D40"/>
<path d="M96.7999 83.6194H90.3999V89.9717H96.7999V83.6194Z" fill="#242D40"/>
<path d="M103.2 83.6194H96.8V89.9717H103.2V83.6194Z" fill="#242D40"/>
<path d="M109.6 83.6194H103.2V89.9717H109.6V83.6194Z" fill="#242D40"/>
<path d="M116 83.6194H109.6V89.9717H116V83.6194Z" fill="#242D40"/>
<path d="M122.4 83.6194H116V89.9717H122.4V83.6194Z" fill="#242D40"/>
<path d="M135.2 83.6194H128.8V89.9717H135.2V83.6194Z" fill="#242D40"/>
<path d="M141.6 83.6194H135.2V89.9717H141.6V83.6194Z" fill="#242D40"/>
<path d="M154.4 83.6194H148V89.9717H154.4V83.6194Z" fill="#242D40"/>
<path d="M167.2 83.6194H160.8V89.9717H167.2V83.6194Z" fill="#242D40"/>
<path d="M26.4 89.9716H20V96.3239H26.4V89.9716Z" fill="#242D40"/>
<path d="M32.8 89.9716H26.4V96.3239H32.8V89.9716Z" fill="#242D40"/>
<path d="M58.4 89.9716H52V96.3239H58.4V89.9716Z" fill="#242D40"/>
<path d="M71.2 89.9716H64.8V96.3239H71.2V89.9716Z" fill="#242D40"/>
<path d="M84 89.9716H77.6V96.3239H84V89.9716Z" fill="#242D40"/>
<path d="M90.4001 89.9716H84.0001V96.3239H90.4001V89.9716Z" fill="#242D40"/>
<path d="M96.7999 89.9716H90.3999V96.3239H96.7999V89.9716Z" fill="#242D40"/>
<path d="M109.6 89.9716H103.2V96.3239H109.6V89.9716Z" fill="#242D40"/>
<path d="M128.8 89.9716H122.4V96.3239H128.8V89.9716Z" fill="#242D40"/>
<path d="M135.2 89.9716H128.8V96.3239H135.2V89.9716Z" fill="#242D40"/>
<path d="M26.4 96.3239H20V102.676H26.4V96.3239Z" fill="#242D40"/>
<path d="M52 96.3239H45.6V102.676H52V96.3239Z" fill="#242D40"/>
<path d="M64.8 96.3239H58.4V102.676H64.8V96.3239Z" fill="#242D40"/>
<path d="M71.2 96.3239H64.8V102.676H71.2V96.3239Z" fill="#242D40"/>
<path d="M77.5999 96.3239H71.1999V102.676H77.5999V96.3239Z" fill="#242D40"/>
<path d="M84 96.3239H77.6V102.676H84V96.3239Z" fill="#242D40"/>
<path d="M96.7999 96.3239H90.3999V102.676H96.7999V96.3239Z" fill="#242D40"/>
<path d="M122.4 96.3239H116V102.676H122.4V96.3239Z" fill="#242D40"/>
<path d="M141.6 96.3239H135.2V102.676H141.6V96.3239Z" fill="#242D40"/>
<path d="M148 96.3239H141.6V102.676H148V96.3239Z" fill="#242D40"/>
<path d="M154.4 96.3239H148V102.676H154.4V96.3239Z" fill="#242D40"/>
<path d="M160.8 96.3239H154.4V102.676H160.8V96.3239Z" fill="#242D40"/>
<path d="M173.6 96.3239H167.2V102.676H173.6V96.3239Z" fill="#242D40"/>
<path d="M180 96.3239H173.6V102.676H180V96.3239Z" fill="#242D40"/>
<path d="M26.4 102.676H20V109.028H26.4V102.676Z" fill="#242D40"/>
<path d="M45.6 102.676H39.2V109.028H45.6V102.676Z" fill="#242D40"/>
<path d="M52 102.676H45.6V109.028H52V102.676Z" fill="#242D40"/>
<path d="M58.4 102.676H52V109.028H58.4V102.676Z" fill="#242D40"/>
<path d="M84 102.676H77.6V109.028H84V102.676Z" fill="#242D40"/>
<path d="M90.4001 102.676H84.0001V109.028H90.4001V102.676Z" fill="#242D40"/>
<path d="M103.2 102.676H96.8V109.028H103.2V102.676Z" fill="#242D40"/>
<path d="M128.8 102.676H122.4V109.028H128.8V102.676Z" fill="#242D40"/>
<path d="M135.2 102.676H128.8V109.028H135.2V102.676Z" fill="#242D40"/>
<path d="M141.6 102.676H135.2V109.028H141.6V102.676Z" fill="#242D40"/>
<path d="M148 102.676H141.6V109.028H148V102.676Z" fill="#242D40"/>
<path d="M154.4 102.676H148V109.028H154.4V102.676Z" fill="#242D40"/>
<path d="M26.4 109.028H20V115.381H26.4V109.028Z" fill="#242D40"/>
<path d="M45.6 109.028H39.2V115.381H45.6V109.028Z" fill="#242D40"/>
<path d="M58.4 109.028H52V115.381H58.4V109.028Z" fill="#242D40"/>
<path d="M64.8 109.028H58.4V115.381H64.8V109.028Z" fill="#242D40"/>
<path d="M71.2 109.028H64.8V115.381H71.2V109.028Z" fill="#242D40"/>
<path d="M90.4001 109.028H84.0001V115.381H90.4001V109.028Z" fill="#242D40"/>
<path d="M109.6 109.028H103.2V115.381H109.6V109.028Z" fill="#242D40"/>
<path d="M135.2 109.028H128.8V115.381H135.2V109.028Z" fill="#242D40"/>
<path d="M141.6 109.028H135.2V115.381H141.6V109.028Z" fill="#242D40"/>
<path d="M154.4 109.028H148V115.381H154.4V109.028Z" fill="#242D40"/>
<path d="M167.2 109.028H160.8V115.381H167.2V109.028Z" fill="#242D40"/>
<path d="M173.6 109.028H167.2V115.381H173.6V109.028Z" fill="#242D40"/>
<path d="M180 109.028H173.6V115.381H180V109.028Z" fill="#242D40"/>
<path d="M26.4 115.381H20V121.733H26.4V115.381Z" fill="#242D40"/>
<path d="M52 115.381H45.6V121.733H52V115.381Z" fill="#242D40"/>
<path d="M71.2 115.381H64.8V121.733H71.2V115.381Z" fill="#242D40"/>
<path d="M90.4001 115.381H84.0001V121.733H90.4001V115.381Z" fill="#242D40"/>
<path d="M103.2 115.381H96.8V121.733H103.2V115.381Z" fill="#242D40"/>
<path d="M116 115.381H109.6V121.733H116V115.381Z" fill="#242D40"/>
<path d="M135.2 115.381H128.8V121.733H135.2V115.381Z" fill="#242D40"/>
<path d="M173.6 115.381H167.2V121.733H173.6V115.381Z" fill="#242D40"/>
<path d="M180 115.381H173.6V121.733H180V115.381Z" fill="#242D40"/>
<path d="M26.4 121.733H20V128.085H26.4V121.733Z" fill="#242D40"/>
<path d="M39.2 121.733H32.8V128.085H39.2V121.733Z" fill="#242D40"/>
<path d="M45.6 121.733H39.2V128.085H45.6V121.733Z" fill="#242D40"/>
<path d="M52 121.733H45.6V128.085H52V121.733Z" fill="#242D40"/>
<path d="M64.8 121.733H58.4V128.085H64.8V121.733Z" fill="#242D40"/>
<path d="M71.2 121.733H64.8V128.085H71.2V121.733Z" fill="#242D40"/>
<path d="M77.5999 121.733H71.1999V128.085H77.5999V121.733Z" fill="#242D40"/>
<path d="M103.2 121.733H96.8V128.085H103.2V121.733Z" fill="#242D40"/>
<path d="M122.4 121.733H116V128.085H122.4V121.733Z" fill="#242D40"/>
<path d="M128.8 121.733H122.4V128.085H128.8V121.733Z" fill="#242D40"/>
<path d="M135.2 121.733H128.8V128.085H135.2V121.733Z" fill="#242D40"/>
<path d="M141.6 121.733H135.2V128.085H141.6V121.733Z" fill="#242D40"/>
<path d="M148 121.733H141.6V128.085H148V121.733Z" fill="#242D40"/>
<path d="M154.4 121.733H148V128.085H154.4V121.733Z" fill="#242D40"/>
<path d="M160.8 121.733H154.4V128.085H160.8V121.733Z" fill="#242D40"/>
<path d="M180 121.733H173.6V128.085H180V121.733Z" fill="#242D40"/>
<path d="M77.5999 128.085H71.1999V134.437H77.5999V128.085Z" fill="#242D40"/>
<path d="M90.4001 128.085H84.0001V134.437H90.4001V128.085Z" fill="#242D40"/>
<path d="M128.8 128.085H122.4V134.437H128.8V128.085Z" fill="#242D40"/>
<path d="M154.4 128.085H148V134.437H154.4V128.085Z" fill="#242D40"/>
<path d="M180 128.085H173.6V134.437H180V128.085Z" fill="#242D40"/>
<path d="M77.5999 134.437H71.1999V140.789H77.5999V134.437Z" fill="#242D40"/>
<path d="M84 134.437H77.6V140.789H84V134.437Z" fill="#242D40"/>
<path d="M96.7999 134.437H90.3999V140.789H96.7999V134.437Z" fill="#242D40"/>
<path d="M103.2 134.437H96.8V140.789H103.2V134.437Z" fill="#242D40"/>
<path d="M109.6 134.437H103.2V140.789H109.6V134.437Z" fill="#242D40"/>
<path d="M128.8 134.437H122.4V140.789H128.8V134.437Z" fill="#242D40"/>
<path d="M141.6 134.437H135.2V140.789H141.6V134.437Z" fill="#242D40"/>
<path d="M154.4 134.437H148V140.789H154.4V134.437Z" fill="#242D40"/>
<path d="M167.2 134.437H160.8V140.789H167.2V134.437Z" fill="#242D40"/>
<path d="M173.6 134.437H167.2V140.789H173.6V134.437Z" fill="#242D40"/>
<path d="M180 134.437H173.6V140.789H180V134.437Z" fill="#242D40"/>
<path d="M96.7999 140.79H90.3999V147.142H96.7999V140.79Z" fill="#242D40"/>
<path d="M116 140.79H109.6V147.142H116V140.79Z" fill="#242D40"/>
<path d="M128.8 140.79H122.4V147.142H128.8V140.79Z" fill="#242D40"/>
<path d="M154.4 140.79H148V147.142H154.4V140.79Z" fill="#242D40"/>
<path d="M160.8 140.79H154.4V147.142H160.8V140.79Z" fill="#242D40"/>
<path d="M77.5999 147.142H71.1999V153.494H77.5999V147.142Z" fill="#242D40"/>
<path d="M90.4001 147.142H84.0001V153.494H90.4001V147.142Z" fill="#242D40"/>
<path d="M96.7999 147.142H90.3999V153.494H96.7999V147.142Z" fill="#242D40"/>
<path d="M103.2 147.142H96.8V153.494H103.2V147.142Z" fill="#242D40"/>
<path d="M109.6 147.142H103.2V153.494H109.6V147.142Z" fill="#242D40"/>
<path d="M116 147.142H109.6V153.494H116V147.142Z" fill="#242D40"/>
<path d="M128.8 147.142H122.4V153.494H128.8V147.142Z" fill="#242D40"/>
<path d="M135.2 147.142H128.8V153.494H135.2V147.142Z" fill="#242D40"/>
<path d="M141.6 147.142H135.2V153.494H141.6V147.142Z" fill="#242D40"/>
<path d="M148 147.142H141.6V153.494H148V147.142Z" fill="#242D40"/>
<path d="M154.4 147.142H148V153.494H154.4V147.142Z" fill="#242D40"/>
<path d="M160.8 147.142H154.4V153.494H160.8V147.142Z" fill="#242D40"/>
<path d="M77.5999 153.494H71.1999V159.846H77.5999V153.494Z" fill="#242D40"/>
<path d="M84 153.494H77.6V159.846H84V153.494Z" fill="#242D40"/>
<path d="M90.4001 153.494H84.0001V159.846H90.4001V153.494Z" fill="#242D40"/>
<path d="M103.2 153.494H96.8V159.846H103.2V153.494Z" fill="#242D40"/>
<path d="M122.4 153.494H116V159.846H122.4V153.494Z" fill="#242D40"/>
<path d="M128.8 153.494H122.4V159.846H128.8V153.494Z" fill="#242D40"/>
<path d="M141.6 153.494H135.2V159.846H141.6V153.494Z" fill="#242D40"/>
<path d="M154.4 153.494H148V159.846H154.4V153.494Z" fill="#242D40"/>
<path d="M173.6 153.494H167.2V159.846H173.6V153.494Z" fill="#242D40"/>
<path d="M180 153.494H173.6V159.846H180V153.494Z" fill="#242D40"/>
<path d="M77.5999 159.846H71.1999V166.198H77.5999V159.846Z" fill="#242D40"/>
<path d="M103.2 159.846H96.8V166.198H103.2V159.846Z" fill="#242D40"/>
<path d="M116 159.846H109.6V166.198H116V159.846Z" fill="#242D40"/>
<path d="M154.4 159.846H148V166.198H154.4V159.846Z" fill="#242D40"/>
<path d="M167.2 159.846H160.8V166.198H167.2V159.846Z" fill="#242D40"/>
<path d="M180 159.846H173.6V166.198H180V159.846Z" fill="#242D40"/>
<path d="M77.5999 166.199H71.1999V172.551H77.5999V166.199Z" fill="#242D40"/>
<path d="M84 166.199H77.6V172.551H84V166.199Z" fill="#242D40"/>
<path d="M103.2 166.199H96.8V172.551H103.2V166.199Z" fill="#242D40"/>
<path d="M128.8 166.199H122.4V172.551H128.8V166.199Z" fill="#242D40"/>
<path d="M135.2 166.199H128.8V172.551H135.2V166.199Z" fill="#242D40"/>
<path d="M141.6 166.199H135.2V172.551H141.6V166.199Z" fill="#242D40"/>
<path d="M148 166.199H141.6V172.551H148V166.199Z" fill="#242D40"/>
<path d="M154.4 166.199H148V172.551H154.4V166.199Z" fill="#242D40"/>
<path d="M160.8 166.199H154.4V172.551H160.8V166.199Z" fill="#242D40"/>
<path d="M173.6 166.199H167.2V172.551H173.6V166.199Z" fill="#242D40"/>
<path d="M77.5999 172.551H71.1999V178.903H77.5999V172.551Z" fill="#242D40"/>
<path d="M103.2 172.551H96.8V178.903H103.2V172.551Z" fill="#242D40"/>
<path d="M109.6 172.551H103.2V178.903H109.6V172.551Z" fill="#242D40"/>
<path d="M116 172.551H109.6V178.903H116V172.551Z" fill="#242D40"/>
<path d="M122.4 172.551H116V178.903H122.4V172.551Z" fill="#242D40"/>
<path d="M167.2 172.551H160.8V178.903H167.2V172.551Z" fill="#242D40"/>
<path d="M173.6 172.551H167.2V178.903H173.6V172.551Z" fill="#242D40"/>
<path d="M180 172.551H173.6V178.903H180V172.551Z" fill="#242D40"/>
<g clip-path="url(#clip1_1_7)">
<path d="M21.3549 20.0888C20.6061 20.0888 19.9917 20.6986 19.9917 21.4418V26.4474V32.7996V39.1518V45.5041V51.8563V58.2085V63.2141C19.9917 63.9573 20.5997 64.5671 21.3549 64.5671H63.4413C64.1901 64.5671 64.8045 63.9637 64.8045 63.2141V58.2085V51.8563V45.5041V39.1518V32.7996V26.4474V21.4418C64.8045 20.6986 64.1965 20.0888 63.4413 20.0888H21.3549ZM58.3981 32.7996V39.1518V45.5041V51.8563V57.4336C58.3981 57.8655 58.0461 58.2085 57.6173 58.2085H27.1789C26.7437 58.2085 26.3981 57.8592 26.3981 57.4336V51.8563V45.5041V39.1518V32.7996V27.2223C26.3981 26.7904 26.7501 26.4474 27.1789 26.4474H57.6173C58.0525 26.4474 58.3981 26.7967 58.3981 27.2223V32.7996Z" fill="#242D40"/>
</g>
<path d="M52 45.506V39.1537V34.1481C52 33.4049 51.392 32.7951 50.6368 32.7951H34.1568C33.408 32.7951 32.7936 33.3986 32.7936 34.1481V39.1537V45.506V50.5115C32.7936 51.2547 33.4016 51.8646 34.1568 51.8646H50.6368C51.3856 51.8646 52 51.2611 52 50.5115V45.506Z" fill="#242D40"/>
<g clip-path="url(#clip2_1_7)">
<path d="M136.555 20.0888C135.806 20.0888 135.192 20.6986 135.192 21.4418V26.4474V32.7996V39.1518V45.5041V51.8563V58.2085V63.2141C135.192 63.9573 135.8 64.5671 136.555 64.5671H178.641C179.39 64.5671 180.005 63.9637 180.005 63.2141V58.2085V51.8563V45.5041V39.1518V32.7996V26.4474V21.4418C180.005 20.6986 179.397 20.0888 178.641 20.0888H136.555ZM173.598 32.7996V39.1518V45.5041V51.8563V57.4336C173.598 57.8655 173.246 58.2085 172.817 58.2085H142.379C141.944 58.2085 141.598 57.8592 141.598 57.4336V51.8563V45.5041V39.1518V32.7996V27.2223C141.598 26.7904 141.95 26.4474 142.379 26.4474H172.817C173.253 26.4474 173.598 26.7967 173.598 27.2223V32.7996Z" fill="#242D40"/>
</g>
<path d="M167.2 45.506V39.1537V34.1481C167.2 33.4049 166.592 32.7951 165.837 32.7951H149.357C148.608 32.7951 147.994 33.3986 147.994 34.1481V39.1537V45.506V50.5115C147.994 51.2547 148.602 51.8646 149.357 51.8646H165.837C166.586 51.8646 167.2 51.2611 167.2 50.5115V45.506Z" fill="#242D40"/>
<g clip-path="url(#clip3_1_7)">
<path d="M21.3549 134.429C20.6061 134.429 19.9917 135.039 19.9917 135.782V140.788V147.14V153.492V159.844V166.197V172.549V177.554C19.9917 178.298 20.5997 178.907 21.3549 178.907H63.4413C64.1901 178.907 64.8045 178.304 64.8045 177.554V172.549V166.197V159.844V153.492V147.14V140.788V135.782C64.8045 135.039 64.1965 134.429 63.4413 134.429H21.3549ZM58.3981 147.14V153.492V159.844V166.197V171.774C58.3981 172.206 58.0461 172.549 57.6173 172.549H27.1789C26.7437 172.549 26.3981 172.199 26.3981 171.774V166.197V159.844V153.492V147.14V141.563C26.3981 141.131 26.7501 140.788 27.1789 140.788H57.6173C58.0525 140.788 58.3981 141.137 58.3981 141.563V147.14Z" fill="#242D40"/>
</g>
<path d="M52 159.846V153.494V148.488C52 147.745 51.392 147.135 50.6368 147.135H34.1568C33.408 147.135 32.7936 147.739 32.7936 148.488V153.494V159.846V164.852C32.7936 165.595 33.4016 166.205 34.1568 166.205H50.6368C51.3856 166.205 52 165.601 52 164.852V159.846Z" fill="#242D40"/>
</g>
<defs>
<clipPath id="clip0_1_7">
<rect width="200" height="198.507" fill="white" transform="translate(0 0.246262)"/>
</clipPath>
<clipPath id="clip1_1_7">
<rect width="44.8" height="44.4657" fill="white" transform="translate(20 20.097)"/>
</clipPath>
<clipPath id="clip2_1_7">
<rect width="44.8" height="44.4657" fill="white" transform="translate(135.2 20.097)"/>
</clipPath>
<clipPath id="clip3_1_7">
<rect width="44.8" height="44.4657" fill="white" transform="translate(20 134.437)"/>
</clipPath>
</defs>
</svg>
